<svg width="188" height="59" viewBox="0 0 188 59" fill="none" xmlns="http://www.w3.org/2000/svg">
<path d="M10.944 19.736H0.192V13.4H29.472V19.736H18.72V47H10.944V19.736ZM39.7174 24.584C40.6134 23.336 41.8134 22.392 43.3174 21.752C44.8534 21.112 46.6134 20.792 48.5974 20.792V27.704C47.7654 27.64 47.2054 27.608 46.9174 27.608C44.7734 27.608 43.0934 28.216 41.8774 29.432C40.6614 30.616 40.0534 32.408 40.0534 34.808V47H32.5654V21.176H39.7174V24.584ZM63.3251 20.792C67.3251 20.792 70.3971 21.752 72.5411 23.672C74.6851 25.56 75.7571 28.424 75.7571 32.264V47H68.7491V43.784C67.3411 46.184 64.7171 47.384 60.8771 47.384C58.8931 47.384 57.1651 47.048 55.6931 46.376C54.2531 45.704 53.1491 44.776 52.3811 43.592C51.6131 42.408 51.2291 41.064 51.2291 39.56C51.2291 37.16 52.1251 35.272 53.9171 33.896C55.7411 32.52 58.5411 31.832 62.3171 31.832H68.2691C68.2691 30.2 67.7731 28.952 66.7811 28.088C65.7891 27.192 64.3011 26.744 62.3171 26.744C60.9411 26.744 59.5811 26.968 58.2371 27.416C56.9251 27.832 55.8051 28.408 54.8771 29.144L52.1891 23.912C53.5971 22.92 55.2771 22.152 57.2291 21.608C59.2131 21.064 61.2451 20.792 63.3251 20.792ZM62.7491 42.344C64.0291 42.344 65.1651 42.056 66.1571 41.48C67.1491 40.872 67.8531 39.992 68.2691 38.84V36.2H63.1331C60.0611 36.2 58.5251 37.208 58.5251 39.224C58.5251 40.184 58.8931 40.952 59.6291 41.528C60.3971 42.072 61.4371 42.344 62.7491 42.344ZM82.5341 21.176H90.0221V47H82.5341V21.176ZM86.2781 17.576C84.9021 17.576 83.7821 17.176 82.9181 16.376C82.0541 15.576 81.6221 14.584 81.6221 13.4C81.6221 12.216 82.0541 11.224 82.9181 10.424C83.7821 9.624 84.9021 9.224 86.2781 9.224C87.6541 9.224 88.7741 9.608 89.6381 10.376C90.5021 11.144 90.9341 12.104 90.9341 13.256C90.9341 14.504 90.5021 15.544 89.6381 16.376C88.7741 17.176 87.6541 17.576 86.2781 17.576ZM112.668 20.792C115.868 20.792 118.444 21.752 120.396 23.672C122.38 25.592 123.372 28.44 123.372 32.216V47H115.884V33.368C115.884 31.32 115.436 29.8 114.54 28.808C113.644 27.784 112.348 27.272 110.652 27.272C108.764 27.272 107.26 27.864 106.14 29.048C105.02 30.2 104.46 31.928 104.46 34.232V47H96.9716V21.176H104.124V24.2C105.116 23.112 106.348 22.28 107.82 21.704C109.292 21.096 110.908 20.792 112.668 20.792ZM155.736 34.184C155.736 34.28 155.688 34.952 155.592 36.2H136.056C136.408 37.8 137.24 39.064 138.552 39.992C139.864 40.92 141.496 41.384 143.448 41.384C144.792 41.384 145.976 41.192 147 40.808C148.056 40.392 149.032 39.752 149.928 38.888L153.912 43.208C151.48 45.992 147.928 47.384 143.256 47.384C140.344 47.384 137.768 46.824 135.528 45.704C133.288 44.552 131.56 42.968 130.344 40.952C129.128 38.936 128.52 36.648 128.52 34.088C128.52 31.56 129.112 29.288 130.296 27.272C131.512 25.224 133.16 23.64 135.24 22.52C137.352 21.368 139.704 20.792 142.296 20.792C144.824 20.792 147.112 21.336 149.16 22.424C151.208 23.512 152.808 25.08 153.96 27.128C155.144 29.144 155.736 31.496 155.736 34.184ZM142.344 26.456C140.648 26.456 139.224 26.936 138.072 27.896C136.92 28.856 136.216 30.168 135.96 31.832H148.68C148.424 30.2 147.72 28.904 146.568 27.944C145.416 26.952 144.008 26.456 142.344 26.456ZM186.018 34.184C186.018 34.28 185.97 34.952 185.874 36.2H166.338C166.69 37.8 167.522 39.064 168.834 39.992C170.146 40.92 171.778 41.384 173.73 41.384C175.074 41.384 176.258 41.192 177.282 40.808C178.338 40.392 179.314 39.752 180.21 38.888L184.194 43.208C181.762 45.992 178.21 47.384 173.538 47.384C170.626 47.384 168.05 46.824 165.81 45.704C163.57 44.552 161.842 42.968 160.626 40.952C159.41 38.936 158.802 36.648 158.802 34.088C158.802 31.56 159.394 29.288 160.578 27.272C161.794 25.224 163.442 23.64 165.522 22.52C167.634 21.368 169.986 20.792 172.578 20.792C175.106 20.792 177.394 21.336 179.442 22.424C181.49 23.512 183.09 25.08 184.242 27.128C185.426 29.144 186.018 31.496 186.018 34.184ZM172.626 26.456C170.93 26.456 169.506 26.936 168.354 27.896C167.202 28.856 166.498 30.168 166.242 31.832H178.962C178.706 30.2 178.002 28.904 176.85 27.944C175.698 26.952 174.29 26.456 172.626 26.456Z" fill="#7209B7"/>
<line y1="56.5" x2="94" y2="56.5" stroke="#7209B7" stroke-width="5"/>
</svg>
